# Blender 3.6.1
# www.blender.org
mtllib bullet.mtl
o Cylinder
v 0.000000 -1.000000 -1.000000
v 0.000000 1.000000 -1.000000
v 0.707107 -1.000000 -0.707107
v 0.707107 1.000000 -0.707107
v 1.000000 -1.000000 0.000000
v 1.000000 1.000000 0.000000
v 0.707107 -1.000000 0.707107
v 0.707107 1.000000 0.707107
v 0.000000 -1.000000 1.000000
v 0.000000 1.000000 1.000000
v -0.707107 -1.000000 0.707107
v -0.707107 1.000000 0.707107
v -1.000000 -1.000000 0.000000
v -1.000000 1.000000 0.000000
v -0.707107 -1.000000 -0.707107
v -0.707107 1.000000 -0.707107
v 0.000000 2.040169 -0.172064
v 0.121667 2.040169 -0.121667
v 0.172064 2.040169 0.000000
v 0.121667 2.040169 0.121667
v 0.000000 2.040169 0.172064
v -0.121667 2.040169 0.121667
v -0.172064 2.040169 0.000000
v -0.121667 2.040169 -0.121667
vn 0.3827 -0.0000 -0.9239
vn 0.9239 -0.0000 -0.3827
vn 0.9239 -0.0000 0.3827
vn 0.3827 -0.0000 0.9239
vn -0.3827 -0.0000 0.9239
vn -0.9239 -0.0000 0.3827
vn 0.7443 0.5924 -0.3083
vn -0.9239 -0.0000 -0.3827
vn -0.3827 -0.0000 -0.9239
vn -0.0000 -1.0000 -0.0000
vn -0.0000 1.0000 -0.0000
vn -0.3083 0.5924 0.7443
vn -0.3083 0.5924 -0.7443
vn 0.3083 0.5924 -0.7443
vn 0.7443 0.5924 0.3083
vn -0.7443 0.5924 0.3083
vn 0.3083 0.5924 0.7443
vn -0.7443 0.5924 -0.3083
vt 1.000000 0.500000
vt 1.000000 1.000000
vt 0.875000 1.000000
vt 0.875000 0.500000
vt 0.750000 1.000000
vt 0.750000 0.500000
vt 0.625000 1.000000
vt 0.625000 0.500000
vt 0.500000 1.000000
vt 0.500000 0.500000
vt 0.375000 1.000000
vt 0.375000 0.500000
vt 0.250000 1.000000
vt 0.250000 0.500000
vt 0.125000 1.000000
vt 0.125000 0.500000
vt 0.000000 1.000000
vt 0.000000 0.500000
vt 0.750000 0.490000
vt 0.919706 0.419706
vt 0.990000 0.250000
vt 0.919706 0.080294
vt 0.750000 0.010000
vt 0.580294 0.080294
vt 0.510000 0.250000
vt 0.580294 0.419706
vt 0.419706 0.419706
vt 0.250000 0.490000
vt 0.080294 0.419706
vt 0.010000 0.250000
vt 0.080294 0.080294
vt 0.250000 0.010000
vt 0.419706 0.080294
vt 0.490000 0.250000
s 0
f 1/1/1 2/2/1 4/3/1 3/4/1
f 3/4/2 4/3/2 6/5/2 5/6/2
f 5/6/3 6/5/3 8/7/3 7/8/3
f 7/8/4 8/7/4 10/9/4 9/10/4
f 9/10/5 10/9/5 12/11/5 11/12/5
f 11/12/6 12/11/6 14/13/6 13/14/6
f 6/5/7 4/3/7 18/3/7 19/5/7
f 13/14/8 14/13/8 16/15/8 15/16/8
f 15/16/9 16/15/9 2/17/9 1/18/9
f 1/19/10 3/20/10 5/21/10 7/22/10 9/23/10 11/24/10 13/25/10 15/26/10
f 18/27/11 17/28/11 24/29/11 23/30/11 22/31/11 21/32/11 20/33/11 19/34/11
f 12/11/12 10/9/12 21/9/12 22/11/12
f 2/17/13 16/15/13 24/15/13 17/17/13
f 4/3/14 2/2/14 17/2/14 18/3/14
f 8/7/15 6/5/15 19/5/15 20/7/15
f 14/13/16 12/11/16 22/11/16 23/13/16
f 10/9/17 8/7/17 20/7/17 21/9/17
f 16/15/18 14/13/18 23/13/18 24/15/18
